<mxfile host="app.diagrams.net" agent="Mozilla/5.0 (X11; Ubuntu; Linux x86_64; rv:144.0) Gecko/20100101 Firefox/144.0" version="28.2.7">
  <diagram name="Page-1" id="AQ6WqM4QL6wlQ6JgRw1S">
    <mxGraphModel dx="1959" dy="1181" grid="1" gridSize="10" guides="1" tooltips="1" connect="1" arrows="1" fold="1" page="1" pageScale="1" pageWidth="850" pageHeight="1100" math="0" shadow="0">
      <root>
        <mxCell id="0" />
        <mxCell id="1" parent="0" />
        <mxCell id="PNmZhNiWiLSYnnZoIw8--1" value="User" style="whiteSpace=wrap;html=1;align=center;" vertex="1" parent="1">
          <mxGeometry x="570" y="360" width="100" height="40" as="geometry" />
        </mxCell>
        <mxCell id="PNmZhNiWiLSYnnZoIw8--2" value="Id" style="ellipse;whiteSpace=wrap;html=1;align=center;fontStyle=4;" vertex="1" parent="1">
          <mxGeometry x="390" y="450" width="100" height="40" as="geometry" />
        </mxCell>
        <mxCell id="PNmZhNiWiLSYnnZoIw8--3" value="" style="endArrow=none;html=1;rounded=0;" edge="1" parent="1" source="PNmZhNiWiLSYnnZoIw8--1" target="PNmZhNiWiLSYnnZoIw8--2">
          <mxGeometry relative="1" as="geometry">
            <mxPoint x="860" y="710" as="sourcePoint" />
            <mxPoint x="1020" y="710" as="targetPoint" />
          </mxGeometry>
        </mxCell>
        <mxCell id="PNmZhNiWiLSYnnZoIw8--4" value="Role" style="whiteSpace=wrap;html=1;align=center;" vertex="1" parent="1">
          <mxGeometry x="1010" y="360" width="100" height="40" as="geometry" />
        </mxCell>
        <mxCell id="PNmZhNiWiLSYnnZoIw8--5" value="Role" style="ellipse;whiteSpace=wrap;html=1;align=center;" vertex="1" parent="1">
          <mxGeometry x="510" y="450" width="100" height="40" as="geometry" />
        </mxCell>
        <mxCell id="PNmZhNiWiLSYnnZoIw8--6" value="" style="endArrow=none;html=1;rounded=0;" edge="1" parent="1" source="PNmZhNiWiLSYnnZoIw8--1" target="PNmZhNiWiLSYnnZoIw8--5">
          <mxGeometry relative="1" as="geometry">
            <mxPoint x="533" y="410" as="sourcePoint" />
            <mxPoint x="490" y="471" as="targetPoint" />
          </mxGeometry>
        </mxCell>
        <mxCell id="PNmZhNiWiLSYnnZoIw8--7" value="Name" style="ellipse;whiteSpace=wrap;html=1;align=center;" vertex="1" parent="1">
          <mxGeometry x="620" y="450" width="100" height="40" as="geometry" />
        </mxCell>
        <mxCell id="PNmZhNiWiLSYnnZoIw8--8" value="" style="endArrow=none;html=1;rounded=0;" edge="1" parent="1" source="PNmZhNiWiLSYnnZoIw8--1" target="PNmZhNiWiLSYnnZoIw8--7">
          <mxGeometry relative="1" as="geometry">
            <mxPoint x="720" y="450" as="sourcePoint" />
            <mxPoint x="650" y="531" as="targetPoint" />
          </mxGeometry>
        </mxCell>
        <mxCell id="PNmZhNiWiLSYnnZoIw8--9" value="Password" style="ellipse;whiteSpace=wrap;html=1;align=center;" vertex="1" parent="1">
          <mxGeometry x="740" y="450" width="100" height="40" as="geometry" />
        </mxCell>
        <mxCell id="PNmZhNiWiLSYnnZoIw8--10" value="" style="endArrow=none;html=1;rounded=0;" edge="1" parent="1" source="PNmZhNiWiLSYnnZoIw8--1" target="PNmZhNiWiLSYnnZoIw8--9">
          <mxGeometry relative="1" as="geometry">
            <mxPoint x="1020" y="510" as="sourcePoint" />
            <mxPoint x="950" y="591" as="targetPoint" />
          </mxGeometry>
        </mxCell>
        <mxCell id="PNmZhNiWiLSYnnZoIw8--11" value="Id" style="ellipse;whiteSpace=wrap;html=1;align=center;fontStyle=4;" vertex="1" parent="1">
          <mxGeometry x="955" y="450" width="100" height="40" as="geometry" />
        </mxCell>
        <mxCell id="PNmZhNiWiLSYnnZoIw8--12" value="" style="endArrow=none;html=1;rounded=0;" edge="1" parent="1" source="PNmZhNiWiLSYnnZoIw8--4" target="PNmZhNiWiLSYnnZoIw8--11">
          <mxGeometry relative="1" as="geometry">
            <mxPoint x="1020" y="410" as="sourcePoint" />
            <mxPoint x="1460" y="720" as="targetPoint" />
          </mxGeometry>
        </mxCell>
        <mxCell id="PNmZhNiWiLSYnnZoIw8--13" value="Name" style="ellipse;whiteSpace=wrap;html=1;align=center;" vertex="1" parent="1">
          <mxGeometry x="1065" y="450" width="100" height="40" as="geometry" />
        </mxCell>
        <mxCell id="PNmZhNiWiLSYnnZoIw8--14" value="" style="endArrow=none;html=1;rounded=0;" edge="1" parent="1" source="PNmZhNiWiLSYnnZoIw8--4" target="PNmZhNiWiLSYnnZoIw8--13">
          <mxGeometry relative="1" as="geometry">
            <mxPoint x="1081" y="410" as="sourcePoint" />
            <mxPoint x="1100" y="541" as="targetPoint" />
          </mxGeometry>
        </mxCell>
        <mxCell id="PNmZhNiWiLSYnnZoIw8--15" value="Plays" style="shape=rhombus;perimeter=rhombusPerimeter;whiteSpace=wrap;html=1;align=center;" vertex="1" parent="1">
          <mxGeometry x="790" y="350" width="120" height="60" as="geometry" />
        </mxCell>
        <mxCell id="PNmZhNiWiLSYnnZoIw8--16" value="" style="endArrow=none;html=1;rounded=0;" edge="1" parent="1" source="PNmZhNiWiLSYnnZoIw8--15" target="PNmZhNiWiLSYnnZoIw8--4">
          <mxGeometry relative="1" as="geometry">
            <mxPoint x="860" y="710" as="sourcePoint" />
            <mxPoint x="1020" y="710" as="targetPoint" />
          </mxGeometry>
        </mxCell>
        <mxCell id="PNmZhNiWiLSYnnZoIw8--17" value="1" style="resizable=0;html=1;whiteSpace=wrap;align=right;verticalAlign=bottom;" connectable="0" vertex="1" parent="PNmZhNiWiLSYnnZoIw8--16">
          <mxGeometry x="1" relative="1" as="geometry" />
        </mxCell>
        <mxCell id="PNmZhNiWiLSYnnZoIw8--18" value="" style="endArrow=none;html=1;rounded=0;" edge="1" parent="1" source="PNmZhNiWiLSYnnZoIw8--15" target="PNmZhNiWiLSYnnZoIw8--1">
          <mxGeometry relative="1" as="geometry">
            <mxPoint x="860" y="710" as="sourcePoint" />
            <mxPoint x="1020" y="710" as="targetPoint" />
          </mxGeometry>
        </mxCell>
        <mxCell id="PNmZhNiWiLSYnnZoIw8--19" value="N" style="resizable=0;html=1;whiteSpace=wrap;align=right;verticalAlign=bottom;" connectable="0" vertex="1" parent="PNmZhNiWiLSYnnZoIw8--18">
          <mxGeometry x="1" relative="1" as="geometry">
            <mxPoint x="20" as="offset" />
          </mxGeometry>
        </mxCell>
        <mxCell id="PNmZhNiWiLSYnnZoIw8--20" value="Item" style="whiteSpace=wrap;html=1;align=center;" vertex="1" parent="1">
          <mxGeometry x="570" y="590" width="100" height="40" as="geometry" />
        </mxCell>
        <mxCell id="PNmZhNiWiLSYnnZoIw8--21" value="Id" style="ellipse;whiteSpace=wrap;html=1;align=center;fontStyle=4;" vertex="1" parent="1">
          <mxGeometry x="400" y="700" width="100" height="40" as="geometry" />
        </mxCell>
        <mxCell id="PNmZhNiWiLSYnnZoIw8--22" value="" style="endArrow=none;html=1;rounded=0;" edge="1" parent="1" source="PNmZhNiWiLSYnnZoIw8--20" target="PNmZhNiWiLSYnnZoIw8--21">
          <mxGeometry relative="1" as="geometry">
            <mxPoint x="600" y="650" as="sourcePoint" />
            <mxPoint x="1040" y="960" as="targetPoint" />
          </mxGeometry>
        </mxCell>
        <mxCell id="PNmZhNiWiLSYnnZoIw8--23" value="Name" style="ellipse;whiteSpace=wrap;html=1;align=center;" vertex="1" parent="1">
          <mxGeometry x="510" y="700" width="100" height="40" as="geometry" />
        </mxCell>
        <mxCell id="PNmZhNiWiLSYnnZoIw8--24" value="" style="endArrow=none;html=1;rounded=0;" edge="1" parent="1" source="PNmZhNiWiLSYnnZoIw8--20" target="PNmZhNiWiLSYnnZoIw8--23">
          <mxGeometry relative="1" as="geometry">
            <mxPoint x="617" y="650" as="sourcePoint" />
            <mxPoint x="500" y="721" as="targetPoint" />
          </mxGeometry>
        </mxCell>
        <mxCell id="PNmZhNiWiLSYnnZoIw8--25" value="Description" style="ellipse;whiteSpace=wrap;html=1;align=center;" vertex="1" parent="1">
          <mxGeometry x="630" y="700" width="100" height="40" as="geometry" />
        </mxCell>
        <mxCell id="PNmZhNiWiLSYnnZoIw8--26" value="" style="endArrow=none;html=1;rounded=0;" edge="1" parent="1" source="PNmZhNiWiLSYnnZoIw8--20" target="PNmZhNiWiLSYnnZoIw8--25">
          <mxGeometry relative="1" as="geometry">
            <mxPoint x="771" y="720" as="sourcePoint" />
            <mxPoint x="660" y="811" as="targetPoint" />
          </mxGeometry>
        </mxCell>
        <mxCell id="PNmZhNiWiLSYnnZoIw8--27" value="Image" style="ellipse;whiteSpace=wrap;html=1;align=center;" vertex="1" parent="1">
          <mxGeometry x="740" y="700" width="100" height="40" as="geometry" />
        </mxCell>
        <mxCell id="PNmZhNiWiLSYnnZoIw8--28" value="" style="endArrow=none;html=1;rounded=0;" edge="1" parent="1" source="PNmZhNiWiLSYnnZoIw8--20" target="PNmZhNiWiLSYnnZoIw8--27">
          <mxGeometry relative="1" as="geometry">
            <mxPoint x="619.9999999999999" y="590" as="sourcePoint" />
            <mxPoint x="769.4" y="811" as="targetPoint" />
          </mxGeometry>
        </mxCell>
        <mxCell id="PNmZhNiWiLSYnnZoIw8--29" value="Price" style="ellipse;whiteSpace=wrap;html=1;align=center;" vertex="1" parent="1">
          <mxGeometry x="397.5" y="760" width="100" height="40" as="geometry" />
        </mxCell>
        <mxCell id="PNmZhNiWiLSYnnZoIw8--30" value="" style="endArrow=none;html=1;rounded=0;" edge="1" parent="1" source="PNmZhNiWiLSYnnZoIw8--29" target="PNmZhNiWiLSYnnZoIw8--20">
          <mxGeometry relative="1" as="geometry">
            <mxPoint x="700" y="640" as="sourcePoint" />
            <mxPoint x="860" y="640" as="targetPoint" />
          </mxGeometry>
        </mxCell>
        <mxCell id="PNmZhNiWiLSYnnZoIw8--31" value="new" style="ellipse;whiteSpace=wrap;html=1;align=center;" vertex="1" parent="1">
          <mxGeometry x="510" y="760" width="100" height="40" as="geometry" />
        </mxCell>
        <mxCell id="PNmZhNiWiLSYnnZoIw8--32" value="" style="endArrow=none;html=1;rounded=0;" edge="1" parent="1" source="PNmZhNiWiLSYnnZoIw8--20" target="PNmZhNiWiLSYnnZoIw8--31">
          <mxGeometry relative="1" as="geometry">
            <mxPoint x="580" y="630" as="sourcePoint" />
            <mxPoint x="740" y="630" as="targetPoint" />
          </mxGeometry>
        </mxCell>
        <mxCell id="PNmZhNiWiLSYnnZoIw8--33" value="Category" style="ellipse;whiteSpace=wrap;html=1;align=center;" vertex="1" parent="1">
          <mxGeometry x="630" y="760" width="100" height="40" as="geometry" />
        </mxCell>
        <mxCell id="PNmZhNiWiLSYnnZoIw8--34" value="" style="endArrow=none;html=1;rounded=0;" edge="1" parent="1" source="PNmZhNiWiLSYnnZoIw8--33" target="PNmZhNiWiLSYnnZoIw8--20">
          <mxGeometry relative="1" as="geometry">
            <mxPoint x="580" y="750" as="sourcePoint" />
            <mxPoint x="740" y="750" as="targetPoint" />
          </mxGeometry>
        </mxCell>
        <mxCell id="PNmZhNiWiLSYnnZoIw8--35" value="Category" style="whiteSpace=wrap;html=1;align=center;" vertex="1" parent="1">
          <mxGeometry x="1010" y="590" width="100" height="40" as="geometry" />
        </mxCell>
        <mxCell id="PNmZhNiWiLSYnnZoIw8--36" value="Id" style="ellipse;whiteSpace=wrap;html=1;align=center;fontStyle=4;" vertex="1" parent="1">
          <mxGeometry x="955" y="680" width="100" height="40" as="geometry" />
        </mxCell>
        <mxCell id="PNmZhNiWiLSYnnZoIw8--37" value="" style="endArrow=none;html=1;rounded=0;" edge="1" parent="1" source="PNmZhNiWiLSYnnZoIw8--35" target="PNmZhNiWiLSYnnZoIw8--36">
          <mxGeometry relative="1" as="geometry">
            <mxPoint x="1048" y="630" as="sourcePoint" />
            <mxPoint x="1460" y="950" as="targetPoint" />
          </mxGeometry>
        </mxCell>
        <mxCell id="PNmZhNiWiLSYnnZoIw8--38" value="Name" style="ellipse;whiteSpace=wrap;html=1;align=center;" vertex="1" parent="1">
          <mxGeometry x="1065" y="680" width="100" height="40" as="geometry" />
        </mxCell>
        <mxCell id="PNmZhNiWiLSYnnZoIw8--39" value="" style="endArrow=none;html=1;rounded=0;" edge="1" parent="1" source="PNmZhNiWiLSYnnZoIw8--35" target="PNmZhNiWiLSYnnZoIw8--38">
          <mxGeometry relative="1" as="geometry">
            <mxPoint x="1072" y="630" as="sourcePoint" />
            <mxPoint x="1100" y="771" as="targetPoint" />
          </mxGeometry>
        </mxCell>
        <mxCell id="PNmZhNiWiLSYnnZoIw8--40" value="Belongs" style="shape=rhombus;perimeter=rhombusPerimeter;whiteSpace=wrap;html=1;align=center;" vertex="1" parent="1">
          <mxGeometry x="790" y="580" width="120" height="60" as="geometry" />
        </mxCell>
        <mxCell id="PNmZhNiWiLSYnnZoIw8--41" value="" style="endArrow=none;html=1;rounded=0;" edge="1" parent="1" source="PNmZhNiWiLSYnnZoIw8--40" target="PNmZhNiWiLSYnnZoIw8--35">
          <mxGeometry relative="1" as="geometry">
            <mxPoint x="819.4" y="940" as="sourcePoint" />
            <mxPoint x="969.4" y="610" as="targetPoint" />
          </mxGeometry>
        </mxCell>
        <mxCell id="PNmZhNiWiLSYnnZoIw8--42" value="1" style="resizable=0;html=1;whiteSpace=wrap;align=right;verticalAlign=bottom;" connectable="0" vertex="1" parent="PNmZhNiWiLSYnnZoIw8--41">
          <mxGeometry x="1" relative="1" as="geometry" />
        </mxCell>
        <mxCell id="PNmZhNiWiLSYnnZoIw8--43" value="" style="endArrow=none;html=1;rounded=0;" edge="1" parent="1" source="PNmZhNiWiLSYnnZoIw8--40" target="PNmZhNiWiLSYnnZoIw8--20">
          <mxGeometry relative="1" as="geometry">
            <mxPoint x="819.4" y="940" as="sourcePoint" />
            <mxPoint x="629.4" y="610" as="targetPoint" />
          </mxGeometry>
        </mxCell>
        <mxCell id="PNmZhNiWiLSYnnZoIw8--44" value="N" style="resizable=0;html=1;whiteSpace=wrap;align=right;verticalAlign=bottom;" connectable="0" vertex="1" parent="PNmZhNiWiLSYnnZoIw8--43">
          <mxGeometry x="1" relative="1" as="geometry">
            <mxPoint x="20" as="offset" />
          </mxGeometry>
        </mxCell>
        <mxCell id="PNmZhNiWiLSYnnZoIw8--45" value="Sells" style="shape=rhombus;perimeter=rhombusPerimeter;whiteSpace=wrap;html=1;align=center;" vertex="1" parent="1">
          <mxGeometry x="560" y="500" width="120" height="60" as="geometry" />
        </mxCell>
        <mxCell id="PNmZhNiWiLSYnnZoIw8--46" value="" style="endArrow=none;html=1;rounded=0;" edge="1" parent="1" source="PNmZhNiWiLSYnnZoIw8--45" target="PNmZhNiWiLSYnnZoIw8--1">
          <mxGeometry relative="1" as="geometry">
            <mxPoint x="630" y="870" as="sourcePoint" />
            <mxPoint x="780" y="540" as="targetPoint" />
          </mxGeometry>
        </mxCell>
        <mxCell id="PNmZhNiWiLSYnnZoIw8--47" value="1" style="resizable=0;html=1;whiteSpace=wrap;align=right;verticalAlign=bottom;" connectable="0" vertex="1" parent="PNmZhNiWiLSYnnZoIw8--46">
          <mxGeometry x="1" relative="1" as="geometry">
            <mxPoint y="20" as="offset" />
          </mxGeometry>
        </mxCell>
        <mxCell id="PNmZhNiWiLSYnnZoIw8--48" value="" style="endArrow=none;html=1;rounded=0;" edge="1" parent="1" source="PNmZhNiWiLSYnnZoIw8--45" target="PNmZhNiWiLSYnnZoIw8--20">
          <mxGeometry relative="1" as="geometry">
            <mxPoint x="630" y="870" as="sourcePoint" />
            <mxPoint x="440" y="540" as="targetPoint" />
          </mxGeometry>
        </mxCell>
        <mxCell id="PNmZhNiWiLSYnnZoIw8--49" value="N" style="resizable=0;html=1;whiteSpace=wrap;align=right;verticalAlign=bottom;" connectable="0" vertex="1" parent="PNmZhNiWiLSYnnZoIw8--48">
          <mxGeometry x="1" relative="1" as="geometry">
            <mxPoint x="20" as="offset" />
          </mxGeometry>
        </mxCell>
        <mxCell id="PNmZhNiWiLSYnnZoIw8--50" value="Purchase" style="whiteSpace=wrap;html=1;align=center;" vertex="1" parent="1">
          <mxGeometry x="180" y="360" width="100" height="40" as="geometry" />
        </mxCell>
        <mxCell id="PNmZhNiWiLSYnnZoIw8--51" value="Makes" style="shape=rhombus;perimeter=rhombusPerimeter;whiteSpace=wrap;html=1;align=center;" vertex="1" parent="1">
          <mxGeometry x="360" y="350" width="120" height="60" as="geometry" />
        </mxCell>
        <mxCell id="PNmZhNiWiLSYnnZoIw8--52" value="" style="endArrow=none;html=1;rounded=0;" edge="1" parent="1" source="PNmZhNiWiLSYnnZoIw8--51" target="PNmZhNiWiLSYnnZoIw8--1">
          <mxGeometry relative="1" as="geometry">
            <mxPoint x="457.5" y="720" as="sourcePoint" />
            <mxPoint x="372.5" y="80" as="targetPoint" />
          </mxGeometry>
        </mxCell>
        <mxCell id="PNmZhNiWiLSYnnZoIw8--53" value="1" style="resizable=0;html=1;whiteSpace=wrap;align=right;verticalAlign=bottom;" connectable="0" vertex="1" parent="PNmZhNiWiLSYnnZoIw8--52">
          <mxGeometry x="1" relative="1" as="geometry">
            <mxPoint y="20" as="offset" />
          </mxGeometry>
        </mxCell>
        <mxCell id="PNmZhNiWiLSYnnZoIw8--54" value="" style="endArrow=none;html=1;rounded=0;" edge="1" parent="1" source="PNmZhNiWiLSYnnZoIw8--51" target="PNmZhNiWiLSYnnZoIw8--50">
          <mxGeometry relative="1" as="geometry">
            <mxPoint x="457.5" y="720" as="sourcePoint" />
            <mxPoint x="447.5" y="440" as="targetPoint" />
          </mxGeometry>
        </mxCell>
        <mxCell id="PNmZhNiWiLSYnnZoIw8--55" value="N" style="resizable=0;html=1;whiteSpace=wrap;align=right;verticalAlign=bottom;" connectable="0" vertex="1" parent="PNmZhNiWiLSYnnZoIw8--54">
          <mxGeometry x="1" relative="1" as="geometry">
            <mxPoint x="20" as="offset" />
          </mxGeometry>
        </mxCell>
        <mxCell id="PNmZhNiWiLSYnnZoIw8--56" value="" style="endArrow=none;html=1;rounded=0;" edge="1" parent="1" source="PNmZhNiWiLSYnnZoIw8--92" target="PNmZhNiWiLSYnnZoIw8--50">
          <mxGeometry relative="1" as="geometry">
            <mxPoint x="230" y="580" as="sourcePoint" />
            <mxPoint x="390" y="390" as="targetPoint" />
          </mxGeometry>
        </mxCell>
        <mxCell id="PNmZhNiWiLSYnnZoIw8--57" value="N" style="resizable=0;html=1;whiteSpace=wrap;align=right;verticalAlign=bottom;" connectable="0" vertex="1" parent="PNmZhNiWiLSYnnZoIw8--56">
          <mxGeometry x="1" relative="1" as="geometry">
            <mxPoint x="10" y="20" as="offset" />
          </mxGeometry>
        </mxCell>
        <mxCell id="PNmZhNiWiLSYnnZoIw8--58" value="" style="endArrow=none;html=1;rounded=0;" edge="1" parent="1" source="PNmZhNiWiLSYnnZoIw8--92" target="PNmZhNiWiLSYnnZoIw8--20">
          <mxGeometry relative="1" as="geometry">
            <mxPoint x="290" y="610" as="sourcePoint" />
            <mxPoint x="340" y="580" as="targetPoint" />
            <Array as="points">
              <mxPoint x="430" y="610" />
            </Array>
          </mxGeometry>
        </mxCell>
        <mxCell id="PNmZhNiWiLSYnnZoIw8--59" value="N" style="resizable=0;html=1;whiteSpace=wrap;align=right;verticalAlign=bottom;" connectable="0" vertex="1" parent="PNmZhNiWiLSYnnZoIw8--58">
          <mxGeometry x="1" relative="1" as="geometry">
            <mxPoint x="-10" as="offset" />
          </mxGeometry>
        </mxCell>
        <mxCell id="PNmZhNiWiLSYnnZoIw8--60" value="Card" style="whiteSpace=wrap;html=1;align=center;" vertex="1" parent="1">
          <mxGeometry x="570" y="120" width="100" height="40" as="geometry" />
        </mxCell>
        <mxCell id="PNmZhNiWiLSYnnZoIw8--61" value="Owns" style="shape=rhombus;perimeter=rhombusPerimeter;whiteSpace=wrap;html=1;align=center;" vertex="1" parent="1">
          <mxGeometry x="560" y="260" width="120" height="60" as="geometry" />
        </mxCell>
        <mxCell id="PNmZhNiWiLSYnnZoIw8--62" value="" style="endArrow=none;html=1;rounded=0;" edge="1" parent="1" source="PNmZhNiWiLSYnnZoIw8--61" target="PNmZhNiWiLSYnnZoIw8--1">
          <mxGeometry relative="1" as="geometry">
            <mxPoint x="620" y="570" as="sourcePoint" />
            <mxPoint x="770" y="240" as="targetPoint" />
          </mxGeometry>
        </mxCell>
        <mxCell id="PNmZhNiWiLSYnnZoIw8--63" value="1" style="resizable=0;html=1;whiteSpace=wrap;align=right;verticalAlign=bottom;" connectable="0" vertex="1" parent="PNmZhNiWiLSYnnZoIw8--62">
          <mxGeometry x="1" relative="1" as="geometry" />
        </mxCell>
        <mxCell id="PNmZhNiWiLSYnnZoIw8--64" value="" style="endArrow=none;html=1;rounded=0;" edge="1" parent="1" source="PNmZhNiWiLSYnnZoIw8--61" target="PNmZhNiWiLSYnnZoIw8--60">
          <mxGeometry relative="1" as="geometry">
            <mxPoint x="620" y="570" as="sourcePoint" />
            <mxPoint x="430" y="240" as="targetPoint" />
          </mxGeometry>
        </mxCell>
        <mxCell id="PNmZhNiWiLSYnnZoIw8--65" value="N" style="resizable=0;html=1;whiteSpace=wrap;align=right;verticalAlign=bottom;" connectable="0" vertex="1" parent="PNmZhNiWiLSYnnZoIw8--64">
          <mxGeometry x="1" relative="1" as="geometry">
            <mxPoint x="15" y="21" as="offset" />
          </mxGeometry>
        </mxCell>
        <mxCell id="PNmZhNiWiLSYnnZoIw8--66" value="Number" style="ellipse;whiteSpace=wrap;html=1;align=center;fontStyle=4;" vertex="1" parent="1">
          <mxGeometry x="397.5" y="200" width="100" height="40" as="geometry" />
        </mxCell>
        <mxCell id="PNmZhNiWiLSYnnZoIw8--67" value="" style="endArrow=none;html=1;rounded=0;" edge="1" parent="1" source="PNmZhNiWiLSYnnZoIw8--60" target="PNmZhNiWiLSYnnZoIw8--66">
          <mxGeometry relative="1" as="geometry">
            <mxPoint x="555" y="190" as="sourcePoint" />
            <mxPoint x="995" y="500" as="targetPoint" />
          </mxGeometry>
        </mxCell>
        <mxCell id="PNmZhNiWiLSYnnZoIw8--68" value="Cvv" style="ellipse;whiteSpace=wrap;html=1;align=center;" vertex="1" parent="1">
          <mxGeometry x="635" y="200" width="100" height="40" as="geometry" />
        </mxCell>
        <mxCell id="PNmZhNiWiLSYnnZoIw8--69" value="" style="endArrow=none;html=1;rounded=0;" edge="1" parent="1" source="PNmZhNiWiLSYnnZoIw8--60" target="PNmZhNiWiLSYnnZoIw8--68">
          <mxGeometry relative="1" as="geometry">
            <mxPoint x="737" y="150" as="sourcePoint" />
            <mxPoint x="620" y="221" as="targetPoint" />
          </mxGeometry>
        </mxCell>
        <mxCell id="PNmZhNiWiLSYnnZoIw8--70" value="Expiration" style="ellipse;whiteSpace=wrap;html=1;align=center;" vertex="1" parent="1">
          <mxGeometry x="510" y="200" width="100" height="40" as="geometry" />
        </mxCell>
        <mxCell id="PNmZhNiWiLSYnnZoIw8--71" value="" style="endArrow=none;html=1;rounded=0;" edge="1" parent="1" source="PNmZhNiWiLSYnnZoIw8--60" target="PNmZhNiWiLSYnnZoIw8--70">
          <mxGeometry relative="1" as="geometry">
            <mxPoint x="511" y="160" as="sourcePoint" />
            <mxPoint x="495" y="221" as="targetPoint" />
          </mxGeometry>
        </mxCell>
        <mxCell id="PNmZhNiWiLSYnnZoIw8--72" value="Name" style="ellipse;whiteSpace=wrap;html=1;align=center;" vertex="1" parent="1">
          <mxGeometry x="740" y="200" width="100" height="40" as="geometry" />
        </mxCell>
        <mxCell id="PNmZhNiWiLSYnnZoIw8--73" value="" style="endArrow=none;html=1;rounded=0;" edge="1" parent="1" source="PNmZhNiWiLSYnnZoIw8--60" target="PNmZhNiWiLSYnnZoIw8--72">
          <mxGeometry relative="1" as="geometry">
            <mxPoint x="741" y="160" as="sourcePoint" />
            <mxPoint x="725" y="221" as="targetPoint" />
          </mxGeometry>
        </mxCell>
        <mxCell id="PNmZhNiWiLSYnnZoIw8--74" value="Id" style="ellipse;whiteSpace=wrap;html=1;align=center;fontStyle=4;" vertex="1" parent="1">
          <mxGeometry y="450" width="100" height="40" as="geometry" />
        </mxCell>
        <mxCell id="PNmZhNiWiLSYnnZoIw8--75" value="" style="endArrow=none;html=1;rounded=0;" edge="1" parent="1" source="PNmZhNiWiLSYnnZoIw8--50" target="PNmZhNiWiLSYnnZoIw8--74">
          <mxGeometry relative="1" as="geometry">
            <mxPoint x="300" y="410" as="sourcePoint" />
            <mxPoint x="740" y="720" as="targetPoint" />
          </mxGeometry>
        </mxCell>
        <mxCell id="PNmZhNiWiLSYnnZoIw8--76" value="User" style="ellipse;whiteSpace=wrap;html=1;align=center;" vertex="1" parent="1">
          <mxGeometry x="847" y="200" width="100" height="40" as="geometry" />
        </mxCell>
        <mxCell id="PNmZhNiWiLSYnnZoIw8--77" value="" style="endArrow=none;html=1;rounded=0;" edge="1" parent="1" source="PNmZhNiWiLSYnnZoIw8--60" target="PNmZhNiWiLSYnnZoIw8--76">
          <mxGeometry relative="1" as="geometry">
            <mxPoint x="770" y="160" as="sourcePoint" />
            <mxPoint x="832" y="221" as="targetPoint" />
          </mxGeometry>
        </mxCell>
        <mxCell id="PNmZhNiWiLSYnnZoIw8--78" value="User" style="ellipse;whiteSpace=wrap;html=1;align=center;" vertex="1" parent="1">
          <mxGeometry x="740" y="760" width="100" height="40" as="geometry" />
        </mxCell>
        <mxCell id="PNmZhNiWiLSYnnZoIw8--79" value="" style="endArrow=none;html=1;rounded=0;" edge="1" parent="1" source="PNmZhNiWiLSYnnZoIw8--78" target="PNmZhNiWiLSYnnZoIw8--20">
          <mxGeometry relative="1" as="geometry">
            <mxPoint x="763" y="880" as="sourcePoint" />
            <mxPoint x="810" y="760" as="targetPoint" />
          </mxGeometry>
        </mxCell>
        <mxCell id="PNmZhNiWiLSYnnZoIw8--80" value="User" style="ellipse;whiteSpace=wrap;html=1;align=center;" vertex="1" parent="1">
          <mxGeometry x="240" y="450" width="100" height="40" as="geometry" />
        </mxCell>
        <mxCell id="PNmZhNiWiLSYnnZoIw8--81" value="" style="endArrow=none;html=1;rounded=0;" edge="1" parent="1" source="PNmZhNiWiLSYnnZoIw8--50" target="PNmZhNiWiLSYnnZoIw8--80">
          <mxGeometry relative="1" as="geometry">
            <mxPoint x="383" y="470" as="sourcePoint" />
            <mxPoint x="340" y="531" as="targetPoint" />
          </mxGeometry>
        </mxCell>
        <mxCell id="PNmZhNiWiLSYnnZoIw8--82" value="DeliveryDate" style="ellipse;whiteSpace=wrap;html=1;align=center;" vertex="1" parent="1">
          <mxGeometry x="110" y="450" width="100" height="40" as="geometry" />
        </mxCell>
        <mxCell id="PNmZhNiWiLSYnnZoIw8--83" value="" style="endArrow=none;html=1;rounded=0;" edge="1" parent="1" source="PNmZhNiWiLSYnnZoIw8--50" target="PNmZhNiWiLSYnnZoIw8--82">
          <mxGeometry relative="1" as="geometry">
            <mxPoint x="270" y="450" as="sourcePoint" />
            <mxPoint x="306" y="511" as="targetPoint" />
          </mxGeometry>
        </mxCell>
        <mxCell id="PNmZhNiWiLSYnnZoIw8--84" value="Delivered" style="ellipse;whiteSpace=wrap;html=1;align=center;" vertex="1" parent="1">
          <mxGeometry x="110" y="510" width="100" height="40" as="geometry" />
        </mxCell>
        <mxCell id="PNmZhNiWiLSYnnZoIw8--85" value="" style="endArrow=none;html=1;rounded=0;" edge="1" parent="1" source="PNmZhNiWiLSYnnZoIw8--50" target="PNmZhNiWiLSYnnZoIw8--84">
          <mxGeometry relative="1" as="geometry">
            <mxPoint x="104" y="400" as="sourcePoint" />
            <mxPoint x="196" y="511" as="targetPoint" />
          </mxGeometry>
        </mxCell>
        <mxCell id="PNmZhNiWiLSYnnZoIw8--86" value="Rating" style="ellipse;whiteSpace=wrap;html=1;align=center;" vertex="1" parent="1">
          <mxGeometry x="430" y="810" width="100" height="40" as="geometry" />
        </mxCell>
        <mxCell id="PNmZhNiWiLSYnnZoIw8--87" value="Rates" style="ellipse;whiteSpace=wrap;html=1;align=center;" vertex="1" parent="1">
          <mxGeometry x="570" y="810" width="100" height="40" as="geometry" />
        </mxCell>
        <mxCell id="PNmZhNiWiLSYnnZoIw8--88" value="Accepted" style="ellipse;whiteSpace=wrap;html=1;align=center;" vertex="1" parent="1">
          <mxGeometry x="710" y="810" width="100" height="40" as="geometry" />
        </mxCell>
        <mxCell id="PNmZhNiWiLSYnnZoIw8--89" value="" style="endArrow=none;html=1;rounded=0;" edge="1" parent="1" source="PNmZhNiWiLSYnnZoIw8--86" target="PNmZhNiWiLSYnnZoIw8--20">
          <mxGeometry relative="1" as="geometry">
            <mxPoint x="500" y="770" as="sourcePoint" />
            <mxPoint x="660" y="770" as="targetPoint" />
          </mxGeometry>
        </mxCell>
        <mxCell id="PNmZhNiWiLSYnnZoIw8--90" value="" style="endArrow=none;html=1;rounded=0;" edge="1" parent="1" source="PNmZhNiWiLSYnnZoIw8--87" target="PNmZhNiWiLSYnnZoIw8--20">
          <mxGeometry relative="1" as="geometry">
            <mxPoint x="500" y="770" as="sourcePoint" />
            <mxPoint x="660" y="770" as="targetPoint" />
          </mxGeometry>
        </mxCell>
        <mxCell id="PNmZhNiWiLSYnnZoIw8--91" value="" style="endArrow=none;html=1;rounded=0;" edge="1" parent="1" source="PNmZhNiWiLSYnnZoIw8--88" target="PNmZhNiWiLSYnnZoIw8--20">
          <mxGeometry relative="1" as="geometry">
            <mxPoint x="620" y="880" as="sourcePoint" />
            <mxPoint x="620" y="700" as="targetPoint" />
          </mxGeometry>
        </mxCell>
        <mxCell id="PNmZhNiWiLSYnnZoIw8--92" value="Item Purchased" style="shape=associativeEntity;whiteSpace=wrap;html=1;align=center;" vertex="1" parent="1">
          <mxGeometry x="160" y="580" width="140" height="60" as="geometry" />
        </mxCell>
        <mxCell id="PNmZhNiWiLSYnnZoIw8--93" value="User" style="ellipse;whiteSpace=wrap;html=1;align=center;fontStyle=4;" vertex="1" parent="1">
          <mxGeometry x="60" y="710" width="100" height="40" as="geometry" />
        </mxCell>
        <mxCell id="PNmZhNiWiLSYnnZoIw8--94" value="" style="endArrow=none;html=1;rounded=0;" edge="1" parent="1" source="PNmZhNiWiLSYnnZoIw8--92" target="PNmZhNiWiLSYnnZoIw8--93">
          <mxGeometry relative="1" as="geometry">
            <mxPoint x="240" y="660" as="sourcePoint" />
            <mxPoint x="790" y="980" as="targetPoint" />
          </mxGeometry>
        </mxCell>
        <mxCell id="PNmZhNiWiLSYnnZoIw8--95" value="Item" style="ellipse;whiteSpace=wrap;html=1;align=center;fontStyle=4;" vertex="1" parent="1">
          <mxGeometry x="180" y="710" width="100" height="40" as="geometry" />
        </mxCell>
        <mxCell id="PNmZhNiWiLSYnnZoIw8--96" value="Quantity" style="ellipse;whiteSpace=wrap;html=1;align=center;" vertex="1" parent="1">
          <mxGeometry x="290" y="710" width="100" height="40" as="geometry" />
        </mxCell>
        <mxCell id="PNmZhNiWiLSYnnZoIw8--97" value="" style="endArrow=none;html=1;rounded=0;" edge="1" parent="1" source="PNmZhNiWiLSYnnZoIw8--92" target="PNmZhNiWiLSYnnZoIw8--96">
          <mxGeometry relative="1" as="geometry">
            <mxPoint x="374" y="660" as="sourcePoint" />
            <mxPoint x="466" y="771" as="targetPoint" />
          </mxGeometry>
        </mxCell>
        <mxCell id="PNmZhNiWiLSYnnZoIw8--98" value="" style="endArrow=none;html=1;rounded=0;" edge="1" parent="1" source="PNmZhNiWiLSYnnZoIw8--92" target="PNmZhNiWiLSYnnZoIw8--95">
          <mxGeometry relative="1" as="geometry">
            <mxPoint x="320" y="640" as="sourcePoint" />
            <mxPoint x="373" y="711" as="targetPoint" />
          </mxGeometry>
        </mxCell>
        <mxCell id="PNmZhNiWiLSYnnZoIw8--99" value="Item in Cart" style="shape=associativeEntity;whiteSpace=wrap;html=1;align=center;" vertex="1" parent="1">
          <mxGeometry x="160" y="800" width="140" height="60" as="geometry" />
        </mxCell>
        <mxCell id="PNmZhNiWiLSYnnZoIw8--100" value="" style="endArrow=none;html=1;rounded=0;" edge="1" parent="1" source="PNmZhNiWiLSYnnZoIw8--99" target="PNmZhNiWiLSYnnZoIw8--1">
          <mxGeometry relative="1" as="geometry">
            <mxPoint x="290" y="570" as="sourcePoint" />
            <mxPoint x="290" y="390" as="targetPoint" />
          </mxGeometry>
        </mxCell>
        <mxCell id="PNmZhNiWiLSYnnZoIw8--101" value="N" style="resizable=0;html=1;whiteSpace=wrap;align=right;verticalAlign=bottom;" connectable="0" vertex="1" parent="PNmZhNiWiLSYnnZoIw8--100">
          <mxGeometry x="1" relative="1" as="geometry">
            <mxPoint x="-13" y="20" as="offset" />
          </mxGeometry>
        </mxCell>
        <mxCell id="PNmZhNiWiLSYnnZoIw8--102" value="" style="endArrow=none;html=1;rounded=0;" edge="1" parent="1" source="PNmZhNiWiLSYnnZoIw8--99" target="PNmZhNiWiLSYnnZoIw8--20">
          <mxGeometry relative="1" as="geometry">
            <mxPoint x="550" y="920" as="sourcePoint" />
            <mxPoint x="897" y="520" as="targetPoint" />
          </mxGeometry>
        </mxCell>
        <mxCell id="PNmZhNiWiLSYnnZoIw8--103" value="N" style="resizable=0;html=1;whiteSpace=wrap;align=right;verticalAlign=bottom;" connectable="0" vertex="1" parent="PNmZhNiWiLSYnnZoIw8--102">
          <mxGeometry x="1" relative="1" as="geometry">
            <mxPoint x="-25" y="20" as="offset" />
          </mxGeometry>
        </mxCell>
        <mxCell id="PNmZhNiWiLSYnnZoIw8--104" value="User" style="ellipse;whiteSpace=wrap;html=1;align=center;fontStyle=4;" vertex="1" parent="1">
          <mxGeometry x="60" y="930" width="100" height="40" as="geometry" />
        </mxCell>
        <mxCell id="PNmZhNiWiLSYnnZoIw8--105" value="" style="endArrow=none;html=1;rounded=0;" edge="1" parent="1" source="PNmZhNiWiLSYnnZoIw8--99" target="PNmZhNiWiLSYnnZoIw8--104">
          <mxGeometry relative="1" as="geometry">
            <mxPoint x="200" y="860" as="sourcePoint" />
            <mxPoint x="790" y="1200" as="targetPoint" />
          </mxGeometry>
        </mxCell>
        <mxCell id="PNmZhNiWiLSYnnZoIw8--106" value="Item" style="ellipse;whiteSpace=wrap;html=1;align=center;fontStyle=4;" vertex="1" parent="1">
          <mxGeometry x="180" y="930" width="100" height="40" as="geometry" />
        </mxCell>
        <mxCell id="PNmZhNiWiLSYnnZoIw8--107" value="Quantity" style="ellipse;whiteSpace=wrap;html=1;align=center;" vertex="1" parent="1">
          <mxGeometry x="290" y="930" width="100" height="40" as="geometry" />
        </mxCell>
        <mxCell id="PNmZhNiWiLSYnnZoIw8--108" value="" style="endArrow=none;html=1;rounded=0;" edge="1" parent="1" source="PNmZhNiWiLSYnnZoIw8--99" target="PNmZhNiWiLSYnnZoIw8--107">
          <mxGeometry relative="1" as="geometry">
            <mxPoint x="258" y="860" as="sourcePoint" />
            <mxPoint x="466" y="991" as="targetPoint" />
          </mxGeometry>
        </mxCell>
        <mxCell id="PNmZhNiWiLSYnnZoIw8--109" value="" style="endArrow=none;html=1;rounded=0;" edge="1" parent="1" source="PNmZhNiWiLSYnnZoIw8--99" target="PNmZhNiWiLSYnnZoIw8--106">
          <mxGeometry relative="1" as="geometry">
            <mxPoint x="230" y="860" as="sourcePoint" />
            <mxPoint x="373" y="931" as="targetPoint" />
          </mxGeometry>
        </mxCell>
        <mxCell id="PNmZhNiWiLSYnnZoIw8--110" value="Suspended" style="ellipse;whiteSpace=wrap;html=1;align=center;" vertex="1" parent="1">
          <mxGeometry x="700" y="500" width="100" height="40" as="geometry" />
        </mxCell>
        <mxCell id="PNmZhNiWiLSYnnZoIw8--111" value="" style="endArrow=none;html=1;rounded=0;" edge="1" parent="1" source="PNmZhNiWiLSYnnZoIw8--1" target="PNmZhNiWiLSYnnZoIw8--110">
          <mxGeometry relative="1" as="geometry">
            <mxPoint x="703" y="450" as="sourcePoint" />
            <mxPoint x="800" y="581" as="targetPoint" />
          </mxGeometry>
        </mxCell>
        <mxCell id="PNmZhNiWiLSYnnZoIw8--112" value="ItemNotification" style="whiteSpace=wrap;html=1;align=center;" vertex="1" parent="1">
          <mxGeometry x="955" y="800.74" width="100" height="40" as="geometry" />
        </mxCell>
        <mxCell id="PNmZhNiWiLSYnnZoIw8--113" value="Email" style="ellipse;whiteSpace=wrap;html=1;align=center;" vertex="1" parent="1">
          <mxGeometry x="720" y="390" width="100" height="40" as="geometry" />
        </mxCell>
        <mxCell id="PNmZhNiWiLSYnnZoIw8--114" value="" style="endArrow=none;html=1;rounded=0;" edge="1" parent="1" source="PNmZhNiWiLSYnnZoIw8--1" target="PNmZhNiWiLSYnnZoIw8--113">
          <mxGeometry relative="1" as="geometry">
            <mxPoint x="817" y="340" as="sourcePoint" />
            <mxPoint x="700" y="411" as="targetPoint" />
          </mxGeometry>
        </mxCell>
        <mxCell id="PNmZhNiWiLSYnnZoIw8--115" value="Id" style="ellipse;whiteSpace=wrap;html=1;align=center;fontStyle=4;" vertex="1" parent="1">
          <mxGeometry x="840" y="870.37" width="100" height="40" as="geometry" />
        </mxCell>
        <mxCell id="PNmZhNiWiLSYnnZoIw8--116" value="" style="endArrow=none;html=1;rounded=0;" edge="1" parent="1" source="PNmZhNiWiLSYnnZoIw8--112" target="PNmZhNiWiLSYnnZoIw8--115">
          <mxGeometry relative="1" as="geometry">
            <mxPoint x="1030" y="800.37" as="sourcePoint" />
            <mxPoint x="1620" y="1140.37" as="targetPoint" />
          </mxGeometry>
        </mxCell>
        <mxCell id="PNmZhNiWiLSYnnZoIw8--117" value="Item" style="ellipse;whiteSpace=wrap;html=1;align=center;" vertex="1" parent="1">
          <mxGeometry x="1065" y="870.37" width="100" height="40" as="geometry" />
        </mxCell>
        <mxCell id="PNmZhNiWiLSYnnZoIw8--118" value="" style="endArrow=none;html=1;rounded=0;" edge="1" parent="1" source="PNmZhNiWiLSYnnZoIw8--112" target="PNmZhNiWiLSYnnZoIw8--117">
          <mxGeometry relative="1" as="geometry">
            <mxPoint x="968" y="800.37" as="sourcePoint" />
            <mxPoint x="1176" y="931.37" as="targetPoint" />
          </mxGeometry>
        </mxCell>
        <mxCell id="PNmZhNiWiLSYnnZoIw8--119" value="Has" style="shape=rhombus;perimeter=rhombusPerimeter;whiteSpace=wrap;html=1;align=center;" vertex="1" parent="1">
          <mxGeometry x="860" y="720" width="120" height="60" as="geometry" />
        </mxCell>
        <mxCell id="PNmZhNiWiLSYnnZoIw8--120" value="" style="endArrow=none;html=1;rounded=0;" edge="1" parent="1" source="PNmZhNiWiLSYnnZoIw8--119" target="PNmZhNiWiLSYnnZoIw8--20">
          <mxGeometry relative="1" as="geometry">
            <mxPoint x="490" y="600" as="sourcePoint" />
            <mxPoint x="750" y="560" as="targetPoint" />
            <Array as="points" />
          </mxGeometry>
        </mxCell>
        <mxCell id="PNmZhNiWiLSYnnZoIw8--121" value="1" style="resizable=0;html=1;whiteSpace=wrap;align=right;verticalAlign=bottom;" connectable="0" vertex="1" parent="PNmZhNiWiLSYnnZoIw8--120">
          <mxGeometry x="1" relative="1" as="geometry">
            <mxPoint x="24" y="10" as="offset" />
          </mxGeometry>
        </mxCell>
        <mxCell id="PNmZhNiWiLSYnnZoIw8--122" value="" style="endArrow=none;html=1;rounded=0;" edge="1" parent="1" source="PNmZhNiWiLSYnnZoIw8--119" target="PNmZhNiWiLSYnnZoIw8--112">
          <mxGeometry relative="1" as="geometry">
            <mxPoint x="757" y="1081" as="sourcePoint" />
            <mxPoint x="740" y="830" as="targetPoint" />
            <Array as="points" />
          </mxGeometry>
        </mxCell>
        <mxCell id="PNmZhNiWiLSYnnZoIw8--123" value="N" style="resizable=0;html=1;whiteSpace=wrap;align=right;verticalAlign=bottom;" connectable="0" vertex="1" parent="PNmZhNiWiLSYnnZoIw8--122">
          <mxGeometry x="1" relative="1" as="geometry">
            <mxPoint x="7" y="-10" as="offset" />
          </mxGeometry>
        </mxCell>
        <mxCell id="PNmZhNiWiLSYnnZoIw8--124" value="Purchase Notification" style="whiteSpace=wrap;html=1;align=center;" vertex="1" parent="1">
          <mxGeometry x="180" y="120" width="100" height="40" as="geometry" />
        </mxCell>
        <mxCell id="PNmZhNiWiLSYnnZoIw8--125" value="Id" style="ellipse;whiteSpace=wrap;html=1;align=center;fontStyle=4;" vertex="1" parent="1">
          <mxGeometry x="117.5" y="180.37" width="100" height="40" as="geometry" />
        </mxCell>
        <mxCell id="PNmZhNiWiLSYnnZoIw8--126" value="" style="endArrow=none;html=1;rounded=0;" edge="1" parent="1" source="PNmZhNiWiLSYnnZoIw8--124" target="PNmZhNiWiLSYnnZoIw8--125">
          <mxGeometry relative="1" as="geometry">
            <mxPoint x="207.5" y="160" as="sourcePoint" />
            <mxPoint x="807.5" y="450.3699999999999" as="targetPoint" />
          </mxGeometry>
        </mxCell>
        <mxCell id="PNmZhNiWiLSYnnZoIw8--127" value="Purchase" style="ellipse;whiteSpace=wrap;html=1;align=center;" vertex="1" parent="1">
          <mxGeometry x="242.5" y="180.37" width="100" height="40" as="geometry" />
        </mxCell>
        <mxCell id="PNmZhNiWiLSYnnZoIw8--128" value="" style="endArrow=none;html=1;rounded=0;" edge="1" parent="1" source="PNmZhNiWiLSYnnZoIw8--124" target="PNmZhNiWiLSYnnZoIw8--127">
          <mxGeometry relative="1" as="geometry">
            <mxPoint x="249.5" y="160" as="sourcePoint" />
            <mxPoint x="363.5" y="241.37" as="targetPoint" />
          </mxGeometry>
        </mxCell>
        <mxCell id="PNmZhNiWiLSYnnZoIw8--129" value="Has" style="shape=rhombus;perimeter=rhombusPerimeter;whiteSpace=wrap;html=1;align=center;" vertex="1" parent="1">
          <mxGeometry x="170" y="250" width="120" height="60" as="geometry" />
        </mxCell>
        <mxCell id="PNmZhNiWiLSYnnZoIw8--130" value="" style="endArrow=none;html=1;rounded=0;" edge="1" parent="1" source="PNmZhNiWiLSYnnZoIw8--129" target="PNmZhNiWiLSYnnZoIw8--124">
          <mxGeometry relative="1" as="geometry">
            <mxPoint x="-200" y="130" as="sourcePoint" />
            <mxPoint x="-27" y="160" as="targetPoint" />
            <Array as="points" />
          </mxGeometry>
        </mxCell>
        <mxCell id="PNmZhNiWiLSYnnZoIw8--131" value="1" style="resizable=0;html=1;whiteSpace=wrap;align=right;verticalAlign=bottom;" connectable="0" vertex="1" parent="PNmZhNiWiLSYnnZoIw8--130">
          <mxGeometry x="1" relative="1" as="geometry">
            <mxPoint x="13" y="21" as="offset" />
          </mxGeometry>
        </mxCell>
        <mxCell id="PNmZhNiWiLSYnnZoIw8--132" value="" style="endArrow=none;html=1;rounded=0;" edge="1" parent="1" source="PNmZhNiWiLSYnnZoIw8--129" target="PNmZhNiWiLSYnnZoIw8--50">
          <mxGeometry relative="1" as="geometry">
            <mxPoint x="280" y="300" as="sourcePoint" />
            <mxPoint x="280" y="210" as="targetPoint" />
            <Array as="points" />
          </mxGeometry>
        </mxCell>
        <mxCell id="PNmZhNiWiLSYnnZoIw8--133" value="1" style="resizable=0;html=1;whiteSpace=wrap;align=right;verticalAlign=bottom;" connectable="0" vertex="1" parent="PNmZhNiWiLSYnnZoIw8--132">
          <mxGeometry x="1" relative="1" as="geometry">
            <mxPoint x="13" as="offset" />
          </mxGeometry>
        </mxCell>
        <mxCell id="PNmZhNiWiLSYnnZoIw8--134" value="Message" style="ellipse;whiteSpace=wrap;html=1;align=center;" vertex="1" parent="1">
          <mxGeometry x="10" y="180.37" width="100" height="40" as="geometry" />
        </mxCell>
        <mxCell id="PNmZhNiWiLSYnnZoIw8--135" value="" style="endArrow=none;html=1;rounded=0;" edge="1" parent="1" source="PNmZhNiWiLSYnnZoIw8--124" target="PNmZhNiWiLSYnnZoIw8--134">
          <mxGeometry relative="1" as="geometry">
            <mxPoint x="18.5" y="160" as="sourcePoint" />
            <mxPoint x="131" y="241.37" as="targetPoint" />
          </mxGeometry>
        </mxCell>
        <mxCell id="PNmZhNiWiLSYnnZoIw8--136" value="Message" style="ellipse;whiteSpace=wrap;html=1;align=center;" vertex="1" parent="1">
          <mxGeometry x="955" y="870.37" width="100" height="40" as="geometry" />
        </mxCell>
        <mxCell id="PNmZhNiWiLSYnnZoIw8--137" value="" style="endArrow=none;html=1;rounded=0;" edge="1" parent="1" source="PNmZhNiWiLSYnnZoIw8--112" target="PNmZhNiWiLSYnnZoIw8--136">
          <mxGeometry relative="1" as="geometry">
            <mxPoint x="1210" y="870" as="sourcePoint" />
            <mxPoint x="1161" y="953.37" as="targetPoint" />
          </mxGeometry>
        </mxCell>
        <mxCell id="PNmZhNiWiLSYnnZoIw8--138" value="Purchase" style="ellipse;whiteSpace=wrap;html=1;align=center;" vertex="1" parent="1">
          <mxGeometry x="70" y="760" width="100" height="40" as="geometry" />
        </mxCell>
        <mxCell id="PNmZhNiWiLSYnnZoIw8--139" value="" style="endArrow=none;html=1;rounded=0;" edge="1" parent="1" source="PNmZhNiWiLSYnnZoIw8--92" target="PNmZhNiWiLSYnnZoIw8--138">
          <mxGeometry relative="1" as="geometry">
            <mxPoint x="241" y="650" as="sourcePoint" />
            <mxPoint x="170" y="721" as="targetPoint" />
          </mxGeometry>
        </mxCell>
        <mxCell id="PNmZhNiWiLSYnnZoIw8--140" value="Card" style="ellipse;whiteSpace=wrap;html=1;align=center;" vertex="1" parent="1">
          <mxGeometry x="242.5" y="510" width="100" height="40" as="geometry" />
        </mxCell>
        <mxCell id="PNmZhNiWiLSYnnZoIw8--141" value="" style="endArrow=none;html=1;rounded=0;" edge="1" parent="1" source="PNmZhNiWiLSYnnZoIw8--50" target="PNmZhNiWiLSYnnZoIw8--140">
          <mxGeometry relative="1" as="geometry">
            <mxPoint x="312" y="480" as="sourcePoint" />
            <mxPoint x="260" y="590" as="targetPoint" />
          </mxGeometry>
        </mxCell>
        <mxCell id="PNmZhNiWiLSYnnZoIw8--142" value="Makes" style="shape=rhombus;perimeter=rhombusPerimeter;whiteSpace=wrap;html=1;align=center;" vertex="1" parent="1">
          <mxGeometry x="350" y="260" width="120" height="60" as="geometry" />
        </mxCell>
        <mxCell id="PNmZhNiWiLSYnnZoIw8--143" value="" style="endArrow=none;html=1;rounded=0;" edge="1" parent="1" source="PNmZhNiWiLSYnnZoIw8--142" target="PNmZhNiWiLSYnnZoIw8--50">
          <mxGeometry relative="1" as="geometry">
            <mxPoint x="470" y="320" as="sourcePoint" />
            <mxPoint x="390" y="320" as="targetPoint" />
          </mxGeometry>
        </mxCell>
        <mxCell id="PNmZhNiWiLSYnnZoIw8--144" value="N" style="resizable=0;html=1;whiteSpace=wrap;align=right;verticalAlign=bottom;" connectable="0" vertex="1" parent="PNmZhNiWiLSYnnZoIw8--143">
          <mxGeometry x="1" relative="1" as="geometry">
            <mxPoint x="10" as="offset" />
          </mxGeometry>
        </mxCell>
        <mxCell id="PNmZhNiWiLSYnnZoIw8--149" value="" style="endArrow=none;html=1;rounded=0;" edge="1" parent="1" source="PNmZhNiWiLSYnnZoIw8--142" target="PNmZhNiWiLSYnnZoIw8--60">
          <mxGeometry relative="1" as="geometry">
            <mxPoint x="480" y="330" as="sourcePoint" />
            <mxPoint x="370" y="385" as="targetPoint" />
          </mxGeometry>
        </mxCell>
        <mxCell id="PNmZhNiWiLSYnnZoIw8--150" value="1" style="resizable=0;html=1;whiteSpace=wrap;align=right;verticalAlign=bottom;" connectable="0" vertex="1" parent="PNmZhNiWiLSYnnZoIw8--149">
          <mxGeometry x="1" relative="1" as="geometry">
            <mxPoint x="-12" y="30" as="offset" />
          </mxGeometry>
        </mxCell>
      </root>
    </mxGraphModel>
  </diagram>
</mxfile>
